<svg width="20" height="20" viewBox="0 0 20 20" fill="none" xmlns="http://www.w3.org/2000/svg">
<path fill-rule="evenodd" clip-rule="evenodd" d="M9.97279 3.58301C10.2951 3.58301 10.5564 3.84429 10.5564 4.1666V12.5029L12.8788 9.60004C13.0801 9.34836 13.4474 9.30756 13.699 9.50891C13.9507 9.71026 13.9915 10.0775 13.7902 10.3292L10.4285 14.5312C10.3177 14.6696 10.1501 14.7502 9.97279 14.7502C9.79551 14.7502 9.62784 14.6696 9.51709 14.5312L6.1554 10.3292C5.95405 10.0775 5.99485 9.71026 6.24653 9.50891C6.49821 9.30756 6.86547 9.34836 7.06681 9.60004L9.3892 12.5029V4.1666C9.3892 3.84429 9.65048 3.58301 9.97279 3.58301ZM2.49998 12.1429C2.82229 12.1429 3.08357 12.4041 3.08357 12.7265V14.8316C3.08357 15.066 3.17667 15.2907 3.34239 15.4564C3.50812 15.6222 3.73288 15.7153 3.96725 15.7153H16.0327C16.1488 15.7153 16.2637 15.6924 16.3709 15.648C16.4781 15.6036 16.5755 15.5385 16.6576 15.4564C16.7396 15.3744 16.8047 15.277 16.8491 15.1698C16.8935 15.0625 16.9164 14.9476 16.9164 14.8316V12.7265C16.9164 12.4041 17.1777 12.1429 17.5 12.1429C17.8223 12.1429 18.0836 12.4041 18.0836 12.7265V14.8316C18.0836 15.1009 18.0305 15.3676 17.9275 15.6164C17.8244 15.8652 17.6733 16.0913 17.4829 16.2818C17.2924 16.4722 17.0664 16.6233 16.8175 16.7263C16.5687 16.8294 16.302 16.8825 16.0327 16.8825H3.96725C3.42332 16.8825 2.90168 16.6664 2.51707 16.2818C2.13245 15.8972 1.91638 15.3755 1.91638 14.8316V12.7265C1.91638 12.4041 2.17767 12.1429 2.49998 12.1429Z" fill="#0051F9"/>
</svg>
