<svg width="20" height="20" viewBox="0 0 20 20" fill="none" xmlns="http://www.w3.org/2000/svg">
<path d="M1.6582 14.8731V4.47762H2.2832L2.9082 4.47681V14.8731C2.9081 15.2182 2.62832 15.4981 2.2832 15.4981C1.93809 15.4981 1.6583 15.2182 1.6582 14.8731ZM15.3276 8.20077V6.95972C15.3276 6.65935 15.208 6.37134 14.9956 6.15894C14.7832 5.94653 14.4952 5.8269 14.1948 5.8269H11.2196C10.7074 5.82529 10.2086 5.65929 9.79785 5.35327L9.79622 5.35164L7.41341 3.56047V3.55965C7.23987 3.43307 7.03476 3.3575 6.82178 3.33993L6.72982 3.33667H4.09066C4.08579 3.33667 4.08088 3.33597 4.07601 3.33586L4.09066 2.71167V2.71086L4.07601 3.33586C3.92395 3.33227 3.77239 3.35907 3.63086 3.4148C3.48936 3.47052 3.36041 3.55429 3.25163 3.66056C3.14287 3.76683 3.05672 3.89396 2.99772 4.0341C2.93875 4.17421 2.9082 4.32479 2.9082 4.47681L1.6582 4.47762C1.65811 4.15884 1.72171 3.84289 1.84538 3.54907C1.96904 3.25531 2.15043 2.98893 2.37842 2.76619C2.60639 2.54353 2.87698 2.36862 3.1735 2.25187C3.46543 2.13698 3.77708 2.08203 4.09066 2.08748V2.08667H6.73307L6.92513 2.09481C7.37065 2.13168 7.79875 2.29175 8.16048 2.55868L7.81055 3.03149L7.82519 3.01196L8.16048 2.55868L8.16455 2.56193L10.5449 4.35067L10.6206 4.40275C10.8006 4.51561 11.0092 4.57618 11.2228 4.5769H14.1948C14.8267 4.5769 15.4326 4.82832 15.8794 5.27515C16.3262 5.72197 16.5776 6.32783 16.5776 6.95972V8.20077C16.5776 8.54588 16.2977 8.8257 15.9526 8.82577C15.6075 8.82577 15.3277 8.54593 15.3276 8.20077Z" fill="#5B6880"/>
<path d="M16.3305 7.88379L16.3264 8.46973V8.50879L16.3305 7.88379C16.6185 7.88557 16.9021 7.95459 17.1589 8.0848C17.4159 8.21507 17.6391 8.4036 17.8108 8.63493C17.9824 8.86623 18.0983 9.13421 18.1485 9.41781C18.1987 9.70141 18.1822 9.99286 18.1005 10.269L18.0964 10.2829L17.5015 10.0916H17.5007L18.0964 10.2829L16.2719 15.9478L16.2694 15.9559L15.7022 15.7638L15.677 15.7557L16.2694 15.9559C16.1452 16.324 15.9077 16.644 15.5915 16.8698C15.2763 17.0949 14.8982 17.2144 14.5108 17.2132V17.214H3.53914L3.42846 17.2108C3.17239 17.1949 2.92163 17.1259 2.69279 17.0081C2.43125 16.8735 2.20515 16.6782 2.03361 16.4393C1.86223 16.2005 1.75037 15.9243 1.70646 15.6336C1.66256 15.3427 1.6879 15.0451 1.78133 14.7661L3.67179 9.10205L3.68074 9.07926C3.81546 8.72298 4.05649 8.4167 4.37166 8.2028C4.68403 7.99083 5.05393 7.88035 5.43123 7.8846V7.88379H16.3305ZM5.32869 9.13949C5.2378 9.15199 5.15058 9.1852 5.07397 9.23714C4.973 9.30566 4.89495 9.40333 4.85099 9.51709L2.96704 15.1624V15.1632L2.94832 15.2324C2.93371 15.3027 2.93109 15.3751 2.94181 15.4465C2.95617 15.5416 2.99309 15.6327 3.04923 15.7109C3.10533 15.789 3.17941 15.8525 3.26489 15.8965C3.35044 15.9405 3.44537 15.9638 3.54158 15.964H14.5141L14.6077 15.9567C14.6999 15.9425 14.7881 15.9072 14.8648 15.8525C14.9672 15.7794 15.0443 15.6756 15.0846 15.5563L16.9026 9.90934C16.9281 9.82042 16.9334 9.72705 16.9172 9.6359C16.9008 9.54316 16.8635 9.45521 16.8074 9.37956C16.7513 9.30394 16.6781 9.24233 16.5942 9.19971C16.5311 9.16775 16.4629 9.14725 16.3931 9.13867L16.3232 9.13379H5.42065L5.32869 9.13949Z" fill="#5B6880"/>
</svg>
