<svg width="20" height="20" viewBox="0 0 20 20" fill="none" xmlns="http://www.w3.org/2000/svg">
<path d="M18.25 2.5C18.25 2.30109 18.1709 2.11038 18.0303 1.96973C17.8896 1.82907 17.6989 1.75 17.5 1.75H2.5C2.30109 1.75 2.11038 1.82907 1.96973 1.96973C1.82907 2.11038 1.75 2.30109 1.75 2.5V17.5C1.75 17.6989 1.82907 17.8896 1.96973 18.0303C2.11038 18.1709 2.30109 18.25 2.5 18.25H17.5C17.6989 18.25 17.8896 18.1709 18.0303 18.0303C18.1709 17.8896 18.25 17.6989 18.25 17.5V2.5ZM19.75 17.5C19.75 18.0967 19.5128 18.6689 19.0908 19.0908C18.6689 19.5128 18.0967 19.75 17.5 19.75H2.5C1.90326 19.75 1.33114 19.5128 0.90918 19.0908C0.487223 18.6689 0.25 18.0967 0.25 17.5V2.5C0.25 1.90326 0.487223 1.33114 0.90918 0.90918C1.33114 0.487223 1.90326 0.25 2.5 0.25H17.5C18.0967 0.25 18.6689 0.487223 19.0908 0.90918C19.5128 1.33114 19.75 1.90326 19.75 2.5V17.5Z" fill="#0051F9"/>
<path d="M7.875 8.31936C8.107 8.18544 8.39298 8.18545 8.625 8.31936L11.25 9.83401L13.875 11.3506C14.107 11.4846 14.25 11.7321 14.25 12C14.25 12.2679 14.107 12.5155 13.875 12.6494L8.625 15.6807C8.39298 15.8146 8.10702 15.8146 7.875 15.6807C7.64302 15.5468 7.50009 15.2991 7.5 15.0313V8.96877C7.50009 8.70094 7.64305 8.4533 7.875 8.31936ZM13.9219 0.522485C14.1636 0.229107 14.5929 0.160594 14.916 0.376001C15.239 0.591351 15.3407 1.01369 15.1631 1.34963L15.124 1.41604L12.9014 4.75002H19C19.4142 4.75002 19.75 5.08581 19.75 5.50002C19.75 5.91424 19.4142 6.25002 19 6.25002H1C0.585786 6.25002 0.25 5.91424 0.25 5.50002C0.25 5.08581 0.585786 4.75002 1 4.75002H5.09863L7.87598 0.584009L7.92188 0.522485C8.16361 0.229107 8.59291 0.160594 8.91602 0.376001C9.23904 0.591351 9.34073 1.01369 9.16309 1.34963L9.12402 1.41604L6.90137 4.75002H11.0986L13.876 0.584009L13.9219 0.522485ZM9 13.7315L12 12L9 10.2676V13.7315Z" fill="#0051F9"/>
</svg>
