<svg width="20" height="20" viewBox="0 0 20 20" fill="none" xmlns="http://www.w3.org/2000/svg">
<path fill-rule="evenodd" clip-rule="evenodd" d="M2.70898 5C2.70898 3.27411 4.10809 1.875 5.83398 1.875H12.1909C13.0197 1.875 13.8146 2.20424 14.4006 2.79029L16.377 4.76668C16.9631 5.35273 17.2923 6.14759 17.2923 6.97639L17.2923 15C17.2923 16.7259 15.8932 18.125 14.1673 18.125H5.83398C4.10809 18.125 2.70898 16.7259 2.70898 15V5ZM5.83398 3.125C4.79845 3.125 3.95898 3.96447 3.95898 5V15C3.95898 16.0355 4.79845 16.875 5.83398 16.875H14.1673C15.2029 16.875 16.0423 16.0355 16.0423 15V6.97639C16.0423 6.47911 15.8448 6.0022 15.4931 5.65057L13.5168 3.67417C13.1651 3.32254 12.6882 3.125 12.1909 3.125H5.83398Z" fill="#5B6880"/>
<path fill-rule="evenodd" clip-rule="evenodd" d="M6.04102 11.25C6.04102 10.9048 6.32084 10.625 6.66602 10.625H13.3327C13.6779 10.625 13.9577 10.9048 13.9577 11.25C13.9577 11.5952 13.6779 11.875 13.3327 11.875H6.66602C6.32084 11.875 6.04102 11.5952 6.04102 11.25ZM6.04102 14.1667C6.04102 13.8215 6.32084 13.5417 6.66602 13.5417H13.3327C13.6779 13.5417 13.9577 13.8215 13.9577 14.1667C13.9577 14.5118 13.6779 14.7917 13.3327 14.7917H6.66602C6.32084 14.7917 6.04102 14.5118 6.04102 14.1667Z" fill="#5B6880"/>
<path fill-rule="evenodd" clip-rule="evenodd" d="M6.04102 8.33313C6.04102 7.98795 6.32084 7.70813 6.66602 7.70813H9.16602C9.51119 7.70813 9.79102 7.98795 9.79102 8.33313C9.79102 8.67831 9.51119 8.95813 9.16602 8.95813H6.66602C6.32084 8.95813 6.04102 8.67831 6.04102 8.33313Z" fill="#5B6880"/>
<path fill-rule="evenodd" clip-rule="evenodd" d="M12.084 1.875C12.4292 1.875 12.709 2.15482 12.709 2.5V5.41667C12.709 5.99196 13.1754 6.45833 13.7507 6.45833H16.6673C17.0125 6.45833 17.2923 6.73816 17.2923 7.08333C17.2923 7.42851 17.0125 7.70833 16.6673 7.70833H13.7507C12.485 7.70833 11.459 6.68232 11.459 5.41667V2.5C11.459 2.15482 11.7388 1.875 12.084 1.875Z" fill="#5B6880"/>
</svg>
