<svg width="24" height="24" viewBox="0 0 24 24" fill="none" xmlns="http://www.w3.org/2000/svg">
<rect width="24" height="24" rx="2" fill="#D5DDEA"/>
<path d="M11.9993 6.66649C12.1834 6.66649 12.3327 6.81566 12.3327 6.99969C12.3327 7.18371 12.1834 7.33289 11.9993 7.33289C11.8153 7.33289 11.666 7.18371 11.666 6.99969C11.666 6.81566 11.8153 6.66649 11.9993 6.66649" stroke="#5B6880" stroke-width="1.5" stroke-linecap="round" stroke-linejoin="round"/>
<path d="M11.9993 11.6665C12.1834 11.6665 12.3327 11.8157 12.3327 11.9997C12.3327 12.1837 12.1834 12.3329 11.9993 12.3329C11.8153 12.3329 11.666 12.1837 11.666 11.9997C11.666 11.8157 11.8153 11.6665 11.9993 11.6665" stroke="#5B6880" stroke-width="1.5" stroke-linecap="round" stroke-linejoin="round"/>
<path d="M11.9993 16.666C12.1834 16.666 12.3327 16.8152 12.3327 16.9992C12.3327 17.1832 12.1834 17.3324 11.9993 17.3324C11.8153 17.3324 11.666 17.1832 11.666 16.9992C11.666 16.8152 11.8153 16.666 11.9993 16.666" stroke="#5B6880" stroke-width="1.5" stroke-linecap="round" stroke-linejoin="round"/>
</svg>
