<svg width="24" height="24" viewBox="0 0 24 24" fill="none" xmlns="http://www.w3.org/2000/svg">
<path d="M21 4.12C21.4142 4.12 21.75 4.45578 21.75 4.87C21.7499 5.25808 21.4551 5.57748 21.0771 5.61609L21 5.62H11C10.5859 5.62 10.2501 5.28412 10.25 4.87C10.25 4.45578 10.5858 4.12 11 4.12H21Z" fill="#5B6880"/>
<path d="M21 11C21.4142 11 21.75 11.3358 21.75 11.75C21.7499 12.1381 21.4551 12.4575 21.0771 12.4961L21 12.5H11C10.5859 12.5 10.2501 12.1641 10.25 11.75C10.25 11.3358 10.5858 11 11 11H21Z" fill="#5B6880"/>
<path d="M21 17C21.4142 17 21.75 17.3358 21.75 17.75C21.7499 18.1381 21.4551 18.4575 21.0771 18.4961L21 18.5H11C10.5859 18.5 10.2501 18.1641 10.25 17.75C10.25 17.3358 10.5858 17 11 17H21Z" fill="#5B6880"/>
<path d="M5.93549 15.8711C6.22758 15.5775 6.70333 15.5761 6.99701 15.8682C7.29068 16.1603 7.29201 16.6361 6.99994 16.9297L4.29184 19.2798C4.00104 19.5717 3.52926 19.5743 3.23521 19.2856L1.99992 18C1.70448 17.7098 1.69996 17.235 1.99016 16.9395C2.28035 16.6441 2.75521 16.6397 3.0507 16.9297L3.75376 17.6919L5.93549 15.8711Z" fill="#5B6880"/>
<path fill-rule="evenodd" clip-rule="evenodd" d="M5.33874 4.40126C5.87375 4.93628 5.87375 5.80372 5.33874 6.33874C4.80372 6.87375 3.93628 6.87375 3.40126 6.33874C2.86625 5.80372 2.86625 4.93628 3.40126 4.40126C3.93628 3.86625 4.80372 3.86625 5.33874 4.40126Z" fill="#5B6880"/>
<path fill-rule="evenodd" clip-rule="evenodd" d="M5.33874 10.9013C5.87375 11.4363 5.87375 12.3037 5.33874 12.8387C4.80372 13.3738 3.93628 13.3738 3.40126 12.8387C2.86625 12.3037 2.86625 11.4363 3.40126 10.9013C3.93628 10.3662 4.80372 10.3662 5.33874 10.9013Z" fill="#5B6880"/>
</svg>
