<svg width="24" height="24" viewBox="0 0 24 24" fill="none" xmlns="http://www.w3.org/2000/svg">
<path d="M8.48541 4.65434C10.4742 2.78254 13.5249 2.78254 15.5137 4.65434C15.5154 4.65592 15.517 4.65763 15.5186 4.65922C15.5223 4.66277 15.5267 4.66632 15.5303 4.66996C17.5136 6.65365 17.5373 9.84145 15.5137 11.7461C13.556 13.5887 10.3767 13.7577 8.45318 11.7139C6.61089 9.75628 6.44203 6.57783 8.48541 4.65434ZM14.4737 5.73539C13.0624 4.4182 10.921 4.4217 9.51373 5.74614C8.15751 7.02257 8.1886 9.2433 9.54595 10.6856C10.8223 12.0417 13.0431 12.0115 14.4854 10.6543C15.86 9.36057 15.8852 7.15189 14.4737 5.73539Z" fill="#5B6880"/>
<path d="M3.25 20C3.25 17.0858 5.58579 14.75 8.5 14.75H11.0996C11.5138 14.75 11.8496 15.0858 11.8496 15.5C11.8496 15.9142 11.5138 16.25 11.0996 16.25H8.5C6.41421 16.25 4.75 17.9142 4.75 20C4.75 20.4142 4.41421 20.75 4 20.75C3.58579 20.75 3.25 20.4142 3.25 20Z" fill="#5B6880"/>
<path d="M16.75 20.5V15.5C16.75 15.0858 17.0858 14.75 17.5 14.75C17.9142 14.75 18.25 15.0858 18.25 15.5V20.5C18.25 20.9142 17.9142 21.25 17.5 21.25C17.0858 21.25 16.75 20.9142 16.75 20.5Z" fill="#5B6880"/>
<path d="M20 17.25C20.4142 17.25 20.75 17.5858 20.75 18C20.75 18.4142 20.4142 18.75 20 18.75H15C14.5858 18.75 14.25 18.4142 14.25 18C14.25 17.5858 14.5858 17.25 15 17.25H20Z" fill="#5B6880"/>
</svg>
