<svg width="24" height="24" viewBox="0 0 24 24" fill="none" xmlns="http://www.w3.org/2000/svg">
<g clip-path="url(#clip0_1393_7940)">
<path fill-rule="evenodd" clip-rule="evenodd" d="M5.98086 4C4.82336 4 3.88086 4.93593 3.88086 6.1V18.14C3.88086 19.2975 4.81679 20.24 5.98086 20.24H18.0109C19.1776 20.24 20.1182 19.2959 20.1109 18.1347L20.1109 18.13V6.1C20.1109 4.9425 19.1749 4 18.0109 4H5.98086ZM2.38086 6.1C2.38086 4.10407 3.99836 2.5 5.98086 2.5H18.0109C20.0068 2.5 21.6109 4.1175 21.6109 6.1V18.1278C21.6221 20.1255 20.0033 21.74 18.0109 21.74H5.98086C3.98493 21.74 2.38086 20.1225 2.38086 18.14V6.1ZM9.34085 10.13C9.34085 9.71579 9.67664 9.38 10.0909 9.38H16.5009C16.9151 9.38 17.2509 9.71579 17.2509 10.13C17.2509 10.5442 16.9151 10.88 16.5009 10.88H10.0909C9.67664 10.88 9.34085 10.5442 9.34085 10.13ZM9.46869 14.05C9.46869 13.6358 9.80447 13.3 10.2187 13.3H16.5009C16.9151 13.3 17.2509 13.6358 17.2509 14.05C17.2509 14.4642 16.9151 14.8 16.5009 14.8H10.2187C9.80447 14.8 9.46869 14.4642 9.46869 14.05Z" fill="#5B6880"/>
<path d="M8 10C8 10.5523 7.55228 11 7 11C6.44772 11 6 10.5523 6 10C6 9.44772 6.44772 9 7 9C7.55228 9 8 9.44772 8 10Z" fill="#5B6880"/>
<path d="M8 14C8 14.5523 7.55228 15 7 15C6.44772 15 6 14.5523 6 14C6 13.4477 6.44772 13 7 13C7.55228 13 8 13.4477 8 14Z" fill="#5B6880"/>
</g>
<defs>
<clipPath id="clip0_1393_7940">
<rect width="19.24" height="19.24" fill="white" transform="translate(2.38086 2.5)"/>
</clipPath>
</defs>
</svg>
