<svg width="20" height="20" viewBox="0 0 20 20" fill="none" xmlns="http://www.w3.org/2000/svg">
<g clip-path="url(#clip0_1012_7013)">
<path d="M18.0407 11.2796V16.4496C18.0407 17.9696 16.8107 19.1996 15.2907 19.1996H3.68066C2.16066 19.1996 0.930664 17.9696 0.930664 16.4496V4.83959C0.930664 3.31959 2.16066 2.08959 3.68066 2.08959H9.14066M12.2207 4.30959L15.9107 7.93959M6.67066 9.53959L10.4207 13.3396M18.2707 1.60959C17.2007 0.529594 15.4507 0.529594 14.3707 1.59959L14.3607 1.60959L5.83066 10.3396C5.75066 10.4196 5.70066 10.5296 5.69066 10.6396L5.26066 14.2196C5.24066 14.3696 5.30066 14.5196 5.40066 14.6296C5.50066 14.7296 5.63066 14.7796 5.76066 14.7796H5.82066L9.43066 14.3996C9.55066 14.3896 9.65066 14.3396 9.73066 14.2496L18.2607 5.51959C19.3507 4.43959 19.3507 2.68959 18.2707 1.60959Z" stroke="#5B6880" stroke-width="1.5" stroke-miterlimit="10" stroke-linecap="round" stroke-linejoin="round"/>
</g>
<defs>
<clipPath id="clip0_1012_7013">
<rect width="19.6" height="19.86" fill="white" transform="translate(0.200195 0.0698242)"/>
</clipPath>
</defs>
</svg>
