<svg width="24" height="24" viewBox="0 0 24 24" fill="none" xmlns="http://www.w3.org/2000/svg">
<path d="M18.3896 8.16479H16.3604C15.814 8.16479 15.2896 7.9476 14.9033 7.56128C14.5172 7.17505 14.2999 6.65138 14.2998 6.10522V4.24487H7.33008C6.91223 4.24487 6.51095 4.41002 6.21484 4.70483C5.91873 4.99968 5.75179 5.40025 5.75 5.81812V17.2117L5.75879 17.3669C5.79598 17.7276 5.95566 18.0669 6.21484 18.325C6.51095 18.6198 6.91224 18.7849 7.33008 18.7849H16.8203C17.0264 18.7849 17.2305 18.7446 17.4209 18.6658C17.6113 18.5869 17.7839 18.4706 17.9297 18.325C18.0754 18.1793 18.1916 18.0065 18.2705 17.8162C18.3494 17.6257 18.3896 17.4208 18.3896 17.2146V8.16479ZM7.86914 16.1033C7.68236 16.4726 7.23187 16.6208 6.8623 16.4343C6.49254 16.2477 6.34361 15.7963 6.53027 15.4265L7.86914 16.1033ZM10.3408 8.79468C10.6239 8.79499 10.8825 8.95491 11.0098 9.20776L14.1396 15.4275C14.3258 15.7974 14.1775 16.249 13.8076 16.4353C13.4377 16.6215 12.986 16.4722 12.7998 16.1023L12.0811 14.6746H8.59082L7.86914 16.1033L7.2002 15.7644L6.53027 15.4265L9.6709 9.20679L9.72461 9.11694C9.86358 8.91701 10.093 8.79452 10.3408 8.79468ZM9.34766 13.1746H11.3271L10.3389 11.2107L9.34766 13.1746ZM13.8701 11.6648V11.1248H13.2598C12.8457 11.1246 12.5098 10.7889 12.5098 10.3748C12.5098 9.96067 12.8457 9.62488 13.2598 9.62476H13.8701V8.95483C13.8701 8.54064 14.2059 8.20483 14.6201 8.20483C15.0343 8.2049 15.3701 8.54068 15.3701 8.95483V9.62476H15.9805L16.0566 9.62866C16.4348 9.66704 16.7304 9.98647 16.7305 10.3748C16.7305 10.7631 16.4348 11.0825 16.0566 11.1208L15.9805 11.1248H15.3701V11.6648C15.3701 12.079 15.0343 12.4147 14.6201 12.4148C14.2059 12.4148 13.8701 12.079 13.8701 11.6648ZM18.7285 6.97925H18.7354L18.7305 6.97729L18.7285 6.97925ZM18.7354 6.97925H18.7285L18.7305 6.97729L18.7354 6.97925ZM19.8896 17.2146C19.8896 17.6177 19.8105 18.017 19.6562 18.3894C19.502 18.7617 19.2761 19.1005 18.9912 19.3855C18.7062 19.6705 18.3675 19.8972 17.9951 20.0515C17.6227 20.2058 17.2234 20.2849 16.8203 20.2849H7.33008C6.5156 20.2849 5.73444 19.9621 5.15723 19.3875C4.58009 18.8128 4.2536 18.0329 4.25 17.2185V5.81128L4.25488 5.65894C4.2958 4.90012 4.61618 4.18106 5.15723 3.64233C5.73444 3.06771 6.5156 2.74487 7.33008 2.74487H15.4941L15.5117 2.74683C15.5192 2.74707 15.5267 2.74742 15.5342 2.7478C15.5779 2.75008 15.6211 2.75551 15.6641 2.76245L15.6797 2.76343L15.6865 2.76538C15.7362 2.77437 15.785 2.78646 15.833 2.80151C15.835 2.80213 15.8369 2.80284 15.8389 2.80347C15.9367 2.83469 16.03 2.87823 16.1172 2.93335C16.1228 2.93687 16.1283 2.94048 16.1338 2.94409C16.1472 2.95289 16.1617 2.96013 16.1748 2.96948L16.2568 3.03394L16.2871 3.06128L19.5146 6.13062H19.5156C19.5527 6.16451 19.5869 6.20174 19.6191 6.23999C19.6307 6.25362 19.6414 6.26785 19.6523 6.28198C19.6717 6.30726 19.6898 6.33331 19.707 6.36011C19.7598 6.4416 19.8012 6.52924 19.832 6.62183C19.8367 6.63612 19.8416 6.65034 19.8457 6.66479L19.8682 6.73901L19.8926 6.9187C19.8945 6.95325 19.8908 6.98772 19.8896 7.02222V17.2146ZM15.7998 6.10522C15.7999 6.25355 15.859 6.39581 15.9639 6.50073C16.0689 6.60575 16.2118 6.66479 16.3604 6.66479H17.9004L15.7998 4.66772V6.10522Z" fill="#5B6880"/>
</svg>
