<svg width="24" height="24" viewBox="0 0 24 24" fill="none" xmlns="http://www.w3.org/2000/svg">
<path fill-rule="evenodd" clip-rule="evenodd" d="M1.25 13.2878C1.25 12.202 2.13023 11.3218 3.21605 11.3218H5.16625C6.25207 11.3218 7.1323 12.202 7.1323 13.2878V21.59C7.1323 22.6758 6.25207 23.5561 5.16625 23.5561H3.21605C2.13023 23.5561 1.25 22.6758 1.25 21.59V13.2878ZM3.21605 12.8218C2.95866 12.8218 2.75 13.0304 2.75 13.2878V21.59C2.75 21.8474 2.95866 22.0561 3.21605 22.0561H5.16625C5.42364 22.0561 5.6323 21.8474 5.6323 21.59V13.2878C5.6323 13.0304 5.42364 12.8218 5.16625 12.8218H3.21605Z" fill="#5B6880"/>
<path fill-rule="evenodd" clip-rule="evenodd" d="M8.91992 4.96605C8.91992 3.88023 9.80015 3 10.886 3H12.8362C13.922 3 14.8022 3.88023 14.8022 4.96605V21.5899C14.8022 22.6758 13.922 23.556 12.8362 23.556H10.886C9.80015 23.556 8.91992 22.6758 8.91992 21.5899V4.96605ZM10.886 4.5C10.6286 4.5 10.4199 4.70866 10.4199 4.96605V21.5899C10.4199 21.8473 10.6286 22.056 10.886 22.056H12.8362C13.0936 22.056 13.3022 21.8473 13.3022 21.5899V4.96605C13.3022 4.70866 13.0936 4.5 12.8362 4.5H10.886Z" fill="#5B6880"/>
<path fill-rule="evenodd" clip-rule="evenodd" d="M16.5879 9.18504C16.5879 8.09922 17.4681 7.21899 18.5539 7.21899H20.5041C21.59 7.21899 22.4702 8.09922 22.4702 9.18504V21.5898C22.4702 22.6756 21.59 23.5559 20.5041 23.5559H18.5539C17.4681 23.5559 16.5879 22.6756 16.5879 21.5898V9.18504ZM18.5539 8.71899C18.2965 8.71899 18.0879 8.92765 18.0879 9.18504V21.5898C18.0879 21.8472 18.2965 22.0559 18.5539 22.0559H20.5041C20.7615 22.0559 20.9702 21.8472 20.9702 21.5898V9.18504C20.9702 8.92765 20.7615 8.71899 20.5041 8.71899H18.5539Z" fill="#5B6880"/>
</svg>
