<svg width="24" height="24" viewBox="0 0 24 24" fill="none" xmlns="http://www.w3.org/2000/svg">
<path d="M11.9993 6.66661C12.1834 6.66661 12.3327 6.81579 12.3327 6.99981C12.3327 7.18383 12.1834 7.33301 11.9993 7.33301C11.8153 7.33301 11.666 7.18383 11.666 6.99981C11.666 6.81579 11.8153 6.66661 11.9993 6.66661" stroke="#5B6880" stroke-width="1.5" stroke-linecap="round" stroke-linejoin="round"/>
<path d="M11.9993 11.6666C12.1834 11.6666 12.3327 11.8158 12.3327 11.9998C12.3327 12.1838 12.1834 12.333 11.9993 12.333C11.8153 12.333 11.666 12.1838 11.666 11.9998C11.666 11.8158 11.8153 11.6666 11.9993 11.6666" stroke="#5B6880" stroke-width="1.5" stroke-linecap="round" stroke-linejoin="round"/>
<path d="M11.9993 16.6661C12.1834 16.6661 12.3327 16.8153 12.3327 16.9993C12.3327 17.1833 12.1834 17.3325 11.9993 17.3325C11.8153 17.3325 11.666 17.1833 11.666 16.9993C11.666 16.8153 11.8153 16.6661 11.9993 16.6661" stroke="#5B6880" stroke-width="1.5" stroke-linecap="round" stroke-linejoin="round"/>
</svg>
